<svg height="512" viewBox="0 0 64 64" width="512" xmlns="http://www.w3.org/2000/svg" xmlns:xlink="http://www.w3.org/1999/xlink"><linearGradient id="gradient_ice" gradientUnits="userSpaceOnUse" x1="-6.722" x2="72.641" y1="63.88" y2="2.247"><stop offset="0" stop-color="#fff200"/><stop offset="1" stop-color="#cd118c"/></linearGradient><linearGradient id="gradient_ice-2" x1="6.224" x2="85.586" xlink:href="#gradient_ice" y1="80.55" y2="18.917"/><linearGradient id="gradient_ice-3" x1="2.462" x2="81.824" xlink:href="#gradient_ice" y1="75.705" y2="14.073"/><linearGradient id="gradient_ice-4" x1="-1.3" x2="78.062" xlink:href="#gradient_ice" y1="70.861" y2="9.228"/><linearGradient id="gradient_ice-5" x1="-10.141" x2="69.221" xlink:href="#gradient_ice" y1="59.477" y2="-2.156"/><linearGradient id="gradient_ice-6" x1="-7.508" x2="71.855" xlink:href="#gradient_ice" y1="62.868" y2="1.235"/><linearGradient id="gradient_ice-7" x1="-4.874" x2="74.488" xlink:href="#gradient_ice" y1="66.259" y2="4.626"/><path d="m57 37h-1v-13a1 1 0 0 0 -1-1v-13a3 3 0 0 0 -6 0v13a1 1 0 0 0 -1 1v13h-32v-13a1 1 0 0 0 -1-1v-13a3 3 0 0 0 -6 0v13a1 1 0 0 0 -1 1v13h-1a5.006 5.006 0 0 0 -5 5v9a2 2 0 0 0 2 2h1v2a2 2 0 0 0 2 2h4a2 2 0 0 0 2-2v-2h38v2a2 2 0 0 0 2 2h4a2 2 0 0 0 2-2v-2h1a2 2 0 0 0 2-2v-9a5.006 5.006 0 0 0 -5-5zm-6-27a1 1 0 0 1 2 0v13h-2zm-1 15h4v12h-4zm-39-15a1 1 0 0 1 2 0v13h-2zm-1 15h4v12h-4zm1 30h-4v-2h4zm46 0h-4v-2h4zm-53-4v-9a3 3 0 0 1 3-3h50a3 3 0 0 1 3 3v9z" fill="url(#gradient_ice)"/><path d="m55 41h-6a1 1 0 0 0 -1 1v6a1 1 0 0 0 1 1h6a1 1 0 0 0 1-1v-6a1 1 0 0 0 -1-1zm-4 6v-2h-1v-2h4v2h-1v2z" fill="url(#gradient_ice-2)"/><path d="m45 41h-6a1 1 0 0 0 -1 1v6a1 1 0 0 0 1 1h6a1 1 0 0 0 1-1v-6a1 1 0 0 0 -1-1zm-4 6v-2h-1v-2h4v2h-1v2z" fill="url(#gradient_ice-3)"/><path d="m35 41h-6a1 1 0 0 0 -1 1v6a1 1 0 0 0 1 1h6a1 1 0 0 0 1-1v-6a1 1 0 0 0 -1-1zm-4 6v-2h-1v-2h4v2h-1v2z" fill="url(#gradient_ice-4)"/><path d="m8.5 41a2.5 2.5 0 0 0 -2.5 2.5v3a2.5 2.5 0 0 0 5 0v-3a2.5 2.5 0 0 0 -2.5-2.5zm.5 5.5a.5.5 0 0 1 -1 0v-3a.5.5 0 0 1 1 0z" fill="url(#gradient_ice-5)"/><path d="m15.5 41a2.5 2.5 0 0 0 -2.5 2.5v3a2.5 2.5 0 0 0 5 0v-3a2.5 2.5 0 0 0 -2.5-2.5zm.5 5.5a.5.5 0 0 1 -1 0v-3a.5.5 0 0 1 1 0z" fill="url(#gradient_ice-6)"/><path d="m22.5 41a2.5 2.5 0 0 0 -2.5 2.5v3a2.5 2.5 0 0 0 5 0v-3a2.5 2.5 0 0 0 -2.5-2.5zm.5 5.5a.5.5 0 0 1 -1 0v-3a.5.5 0 0 1 1 0z" fill="url(#gradient_ice-7)"/></svg>