<svg height="512" viewBox="0 0 64 64" width="512" xmlns="http://www.w3.org/2000/svg" xmlns:xlink="http://www.w3.org/1999/xlink"><linearGradient id="New_Gradient_Swatch_3" gradientUnits="userSpaceOnUse" x1="32" x2="32" y1="63.977" y2="1.471"><stop offset="0" stop-color="#006df0"/><stop offset="1" stop-color="#00e7f0"/></linearGradient><linearGradient id="New_Gradient_Swatch_3-2" x1="6" x2="6" xlink:href="#New_Gradient_Swatch_3" y1="63.977" y2="1.471"/><linearGradient id="New_Gradient_Swatch_3-3" x1="58" x2="58" xlink:href="#New_Gradient_Swatch_3" y1="63.977" y2="1.471"/><linearGradient id="New_Gradient_Swatch_3-4" x1="27" x2="27" xlink:href="#New_Gradient_Swatch_3" y1="63.977" y2="1.471"/><linearGradient id="New_Gradient_Swatch_3-5" x1="50" x2="50" xlink:href="#New_Gradient_Swatch_3" y1="63.977" y2="1.471"/><path d="m61 2h-58a1 1 0 0 0 -1 1v54a1 1 0 0 0 1 1h3v3a1 1 0 0 0 1 1h4a1 1 0 0 0 1-1v-3h40v3a1 1 0 0 0 1 1h4a1 1 0 0 0 1-1v-3h3a1 1 0 0 0 1-1v-54a1 1 0 0 0 -1-1zm-57 20h56v16h-56zm0-18h56v16h-56zm6 56h-2v-2h2zm46 0h-2v-2h2zm4-4h-56v-16h56z" fill="url(#New_Gradient_Swatch_3)"/><path d="m6 6a1 1 0 0 0 -1 1v10a1 1 0 0 0 2 0v-10a1 1 0 0 0 -1-1z" fill="url(#New_Gradient_Swatch_3-2)"/><path d="m58 6a1 1 0 0 0 -1 1v10a1 1 0 0 0 2 0v-10a1 1 0 0 0 -1-1z" fill="url(#New_Gradient_Swatch_3-3)"/><path d="m43 6h-32a1 1 0 0 0 -1 1v10a1 1 0 0 0 1 1h32a1 1 0 0 0 1-1v-10a1 1 0 0 0 -1-1zm-23 2h2v8h-2zm-2 8h-2v-8h2zm6-8h2v8h-2zm4 0h2v8h-2zm4 0h2v8h-2zm4 0h2v8h-2zm-24 0h2v8h-2zm30 8h-2v-8h2z" fill="url(#New_Gradient_Swatch_3-4)"/><g fill="url(#New_Gradient_Swatch_3-5)"><path d="m50 12a3 3 0 1 0 3 3 3 3 0 0 0 -3-3zm0 4a1 1 0 1 1 1-1 1 1 0 0 1 -1 1z"/><path d="m52 9h-4a1 1 0 0 0 0 2h4a1 1 0 0 0 0-2z"/><path d="m52 6h-4a1 1 0 0 0 0 2h4a1 1 0 0 0 0-2z"/></g><path d="m6 24a1 1 0 0 0 -1 1v10a1 1 0 0 0 2 0v-10a1 1 0 0 0 -1-1z" fill="url(#New_Gradient_Swatch_3-2)"/><path d="m58 24a1 1 0 0 0 -1 1v10a1 1 0 0 0 2 0v-10a1 1 0 0 0 -1-1z" fill="url(#New_Gradient_Swatch_3-3)"/><path d="m43 24h-32a1 1 0 0 0 -1 1v10a1 1 0 0 0 1 1h32a1 1 0 0 0 1-1v-10a1 1 0 0 0 -1-1zm-23 2h2v8h-2zm-2 8h-2v-8h2zm6-8h2v8h-2zm4 0h2v8h-2zm4 0h2v8h-2zm4 0h2v8h-2zm-24 0h2v8h-2zm30 8h-2v-8h2z" fill="url(#New_Gradient_Swatch_3-4)"/><path d="m50 30a3 3 0 1 0 3 3 3 3 0 0 0 -3-3zm0 4a1 1 0 1 1 1-1 1 1 0 0 1 -1 1z" fill="url(#New_Gradient_Swatch_3-5)"/><path d="m52 27h-4a1 1 0 0 0 0 2h4a1 1 0 0 0 0-2z" fill="url(#New_Gradient_Swatch_3-5)"/><path d="m52 24h-4a1 1 0 0 0 0 2h4a1 1 0 0 0 0-2z" fill="url(#New_Gradient_Swatch_3-5)"/><path d="m6 54a1 1 0 0 0 1-1v-10a1 1 0 0 0 -2 0v10a1 1 0 0 0 1 1z" fill="url(#New_Gradient_Swatch_3-2)"/><path d="m58 54a1 1 0 0 0 1-1v-10a1 1 0 0 0 -2 0v10a1 1 0 0 0 1 1z" fill="url(#New_Gradient_Swatch_3-3)"/><path d="m11 54h32a1 1 0 0 0 1-1v-10a1 1 0 0 0 -1-1h-32a1 1 0 0 0 -1 1v10a1 1 0 0 0 1 1zm23-2h-2v-8h2zm2-8h2v8h-2zm-6 8h-2v-8h2zm-4 0h-2v-8h2zm-4 0h-2v-8h2zm-4 0h-2v-8h2zm24 0h-2v-8h2zm-30-8h2v8h-2z" fill="url(#New_Gradient_Swatch_3-4)"/><path d="m50 54a3 3 0 1 0 -3-3 3 3 0 0 0 3 3zm0-4a1 1 0 1 1 -1 1 1 1 0 0 1 1-1z" fill="url(#New_Gradient_Swatch_3-5)"/><path d="m48 47h4a1 1 0 0 0 0-2h-4a1 1 0 0 0 0 2z" fill="url(#New_Gradient_Swatch_3-5)"/><path d="m48 44h4a1 1 0 0 0 0-2h-4a1 1 0 0 0 0 2z" fill="url(#New_Gradient_Swatch_3-5)"/></svg>